<?xml version="1.0" encoding="utf-8"?>
<!-- Generator: Adobe Illustrator 19.0.0, SVG Export Plug-In . SVG Version: 6.00 Build 0)  -->
<svg version="1.1" id="圖層_1" xmlns="http://www.w3.org/2000/svg" xmlns:xlink="http://www.w3.org/1999/xlink" x="0px" y="0px"
	 viewBox="0 0 20 20" style="enable-background:new 0 0 20 20;" xml:space="preserve">
<style type="text/css">
	.st0{fill:#00C200;}
</style>
<g id="XMLID_1_">
	<g id="XMLID_60_">
		<path id="XMLID_61_" class="st0" d="M19.5,8.2C19.3,4.2,15.1,1,10,1C4.8,1,0.5,4.4,0.5,8.6c0,3.8,3.6,7,8.2,7.5
			c0.3,0,0.5,0.3,0.5,0.6L9,18.4c0,0.4,0.4,0.7,0.7,0.5c3.9-1.9,6.3-3.8,7.7-5.5c0.3-0.3,1.1-1.5,1.3-1.8c0.4-0.7,0.6-1.3,0.7-2.1
			c0-0.2,0.1-0.4,0.1-0.6C19.5,8.7,19.5,8.3,19.5,8.2z M6.2,11H4.3c-0.3,0-0.5-0.2-0.5-0.5V6.9c0-0.3,0.2-0.5,0.5-0.5
			c0.3,0,0.5,0.2,0.5,0.5v3.2h1.4c0.3,0,0.5,0.2,0.5,0.5C6.7,10.9,6.5,11,6.2,11z M8.2,10.7C8.2,10.9,8,11,7.8,11H7.6
			c-0.2,0-0.4-0.1-0.4-0.4V6.8c0-0.2,0.1-0.4,0.4-0.4h0.2c0.2,0,0.4,0.2,0.4,0.4V10.7z M12.7,10.6c0,0.3-0.2,0.5-0.5,0.5
			c-0.1,0-0.2-0.1-0.3-0.1c0,0-2-2.6-2-2.6v2.2c0,0.3-0.2,0.5-0.5,0.5c-0.3,0-0.5-0.2-0.5-0.5V6.9c0-0.3,0.2-0.5,0.5-0.5
			c0.2,0,0.3,0.1,0.4,0.2c0,0,2,2.6,2,2.6V6.9c0-0.3,0.2-0.5,0.5-0.5s0.5,0.2,0.5,0.5V10.6z M15.8,8.2c0.3,0,0.5,0.2,0.5,0.5
			c0,0.3-0.2,0.5-0.5,0.5h-1.5v0.9h1.5c0.3,0,0.5,0.2,0.5,0.5c0,0.3-0.2,0.5-0.5,0.5h-1.9c-0.3,0-0.5-0.2-0.5-0.5V6.9
			c0-0.3,0.2-0.5,0.5-0.5h1.9c0.3,0,0.5,0.2,0.5,0.5c0,0.3-0.2,0.5-0.5,0.5h-1.5v0.8H15.8z"/>
	</g>
</g>
</svg>
